<?xml version="1.0" encoding="UTF-8"?>
<svg id="Layer_1" data-name="Layer 1" xmlns="http://www.w3.org/2000/svg" viewBox="0 0 383.63 383.78">
  <defs>
    <style>
      .cls-1 {
        stroke-width: 0px;
      }
    </style>
  </defs>
  <path class="cls-1" d="m383.36,179.57c-.27-8.35-.29-16.77-1.94-25.02-6.81-34.05-21.63-63.93-44.07-89.68l.34-.34-8.27-8.27c-1.13-1.16-2.27-2.29-3.42-3.42l-4.58-4.58-.14.14c-15.84-14.42-33.83-25.84-53.73-34.3-14.25-6.06-28.93-10.97-44.4-12.67C209.22-.08,195.2-.22,181.22.21c-8.41.26-16.91.13-25.2,1.71-35.11,6.67-66.16,21.92-92.83,45.64-21.33,18.98-37.95,41.57-49.05,68.02-6.79,16.2-12.41,32.72-13.27,50.52-.27,5.69-.19,11.39-.87,17.06v17.97c.8,2.04.26,4.17.36,6.25.36,7.77.3,15.63,1.83,23.25,6.84,33.99,21.84,64.09,44.85,89.94,19.49,21.89,42.8,38.73,69.95,50.05,13.77,5.74,27.88,10.31,42.82,11.86,6.82.71,13.69.61,20.51,1.3h23.19c.89-.68,1.92-.33,2.89-.36,8.57-.25,17.2-.22,25.58-2.06,40-8.76,74.07-27.91,101.84-58.23,16.71-18.25,29.66-38.74,38.47-61.85,4.58-12.01,8.53-24.26,9.9-37.04,1.59-14.82,1.66-29.76,1.17-44.66Zm-358.97-15.3c12.68-69.57,54.1-115.94,121.95-135.5,58.59-16.89,111.54-2.64,158.34,36.24l-65.91,65.91c-3.69-6.71-6.48-13.4-6.48-20.72v-34c0-7.37-5.99-13.36-13.36-13.36h-57.21c-7.37,0-13.36,5.99-13.36,13.36v34c0,10.13-5.35,19.05-11.01,28.49-4.47,7.46-9.1,15.17-11.25,23.91-2.79,11.37-4.1,21.93-4.5,36.44l8.32.23h0l-8.32-.23c0,.08,0,.15,0,.23h-.18v49l-56.85,56.85c-34.55-41.01-49.81-87.91-40.16-140.86Zm114.02,56.33c0-.66,0-1.29,0-1.94,10.32.59,28.7,2.64,44.67,9.71,19.74,8.74,45.71,10.33,59.15,10.52v60.11c0,.41-.33.75-.75.75h-102.33c-.41,0-.74-.33-.74-.75v-78.41Zm103.82,1.28c-12.17-.2-35.49-1.62-52.27-9.05-18.9-8.36-39.93-10.61-51.43-11.2.02-.71.03-1.41.05-2.11h0c.37-13.22,1.53-22.74,4.02-32.86,1.53-6.24,5.31-12.54,9.32-19.22,3.39-5.66,7.02-11.72,9.65-18.43h57.49c2.63,6.71,6.26,12.78,9.65,18.43,4,6.67,7.78,12.97,9.32,19.22,2.49,10.12,3.65,19.64,4.02,32.86.18,6.32.18,13.16.18,21.08v1.28Zm-26.95-109.87h-49.93v-32.16h49.93v32.16Zm98.11,198.48c-67.48,69.49-170.95,64.83-231.99,10.75-.08-.06-.16-.12-.25-.17l40.25-40.25v18.2c0,9.79,7.96,17.75,17.74,17.75h102.33c9.78,0,17.75-7.96,17.75-17.75v-99.73h-.18c0-.08,0-.16,0-.23-.4-14.51-1.71-25.07-4.5-36.44-.94-3.81-2.35-7.43-4.01-10.92l70.65-70.65c2.97,3.63,5.67,7.48,8.02,11.54,44.15,59.83,46.97,153.26-15.81,217.92Z"/>
</svg>