<?xml version="1.0" encoding="UTF-8"?>
<svg id="Layer_1" data-name="Layer 1" xmlns="http://www.w3.org/2000/svg" viewBox="0 0 383.63 383.78">
  <defs>
    <style>
      .cls-1 {
        stroke-width: 0px;
      }
    </style>
  </defs>
  <path class="cls-1" d="m383.36,179.57c-.27-8.35-.29-16.77-1.94-25.02-7.57-37.85-25.03-70.56-51.87-98.15-17.75-18.25-38.56-32.32-62.01-42.28-14.25-6.06-28.93-10.97-44.4-12.67C209.22-.08,195.2-.22,181.22.21c-8.41.26-16.91.13-25.2,1.71-35.11,6.67-66.16,21.92-92.83,45.64-21.33,18.98-37.95,41.57-49.05,68.02-6.79,16.2-12.41,32.72-13.27,50.52-.27,5.69-.19,11.39-.87,17.06v17.97c.8,2.04.26,4.17.36,6.25.36,7.77.3,15.63,1.83,23.25,6.84,33.99,21.84,64.09,44.85,89.94,19.49,21.89,42.8,38.73,69.95,50.05,13.77,5.74,27.88,10.31,42.82,11.86,6.82.71,13.69.61,20.51,1.3h23.19c.89-.68,1.92-.33,2.89-.36,8.57-.25,17.2-.22,25.58-2.06,40-8.76,74.07-27.91,101.84-58.23,16.71-18.25,29.66-38.74,38.47-61.85,4.58-12.01,8.53-24.26,9.9-37.04,1.59-14.82,1.66-29.76,1.17-44.66Zm-184.61,51.19c-4.6-24.04,16.4-45.37,40.48-41.11,3.85,23.77-15.22,44.38-40.48,41.11Zm-.08,53.28c-3.41-25.35,15.17-44.25,40.38-41.37,4.18,20.57-11.83,44.17-40.38,41.37Zm-56.98-94.38c22.34-3.56,44.91,14.19,40.53,41.04-24.43,3.48-44.56-16.92-40.53-41.04Zm-.04-53.06c21.86-3.65,44.93,13.72,40.59,40.95-24.24,3.73-44.28-16.48-40.59-40.95Zm.1,106.16c19.74-3.25,44.27,11.16,40.69,40.88-22.6,4.12-44.83-14.95-40.69-40.88Zm48.59-166.52c21.21,15.56,22.61,45.53.17,62.74-20.5-15.76-22.89-44.34-.17-62.74Zm8.41,101.39c-4.46-25.72,17.17-44.68,40.49-41.06,3.82,23.97-15.4,44.42-40.49,41.06Zm-174.37-13.36c12.68-69.57,54.1-115.94,121.95-135.5,58.07-16.74,110.61-2.89,157.11,35.22l-57.16,57.16c-8.53-.27-17.1.2-25.83.37.31-1.91.83-4.52,1.15-7.16,2.02-16.34-2.7-30.56-13.74-42.66-3.61-3.96-7.5-7.67-11.34-11.41-4.02-3.92-7.8-3.95-11.76-.1-3.84,3.74-7.73,7.45-11.34,11.41-12.6,13.79-16.74,29.92-12.95,48.16.13.61.24,1.22.35,1.83.02.12,0,.25-.02.37-5.39-.33-10.77-.74-16.16-.98-18.1-.82-19.12,2.04-18.78,18.93.15,7.55.76,14.98,3.83,21.94,1.79,4.06,4.11,7.89,6.31,12.06-7.27.95-10.13,3.99-10.05,11.1.07,6.6.06,13.25.86,19.78.98,8.03,4.58,15.18,8.99,21.22-2.86,1.8-6.44,2.92-7.98,5.34-1.64,2.57-1.85,6.38-1.77,9.63,0,.14,0,.27,0,.41l-62.52,62.52c-33.83-40.71-48.69-87.22-39.14-139.64Zm289,146.22c-68,70.03-172.56,64.75-233.4,9.48l50.27-50.27c10.4,21.04,28.06,30.85,52.73,29.63.08,1.57.2,2.88.21,4.19.02,6.61-.05,13.22.04,19.83.06,4.84,3.13,8.03,7.49,8.04,4.38,0,7.5-3.18,7.55-8,.09-7.84.02-15.68.02-23.7,5.07-.35,9.94-.29,14.66-1.09,24.26-4.12,41.4-24.11,42.01-48.72.09-3.62.03-7.23.03-10.85-.01-8-2.32-10.78-9.57-12.02,2.52-5.78,6.22-11.44,7.37-17.58,1.66-8.84,1.85-18.03,1.94-27.08.05-5.11-3.5-7.54-10.22-8.54,1.51-2.49,3.08-4.86,4.42-7.35,3.58-6.65,5.31-13.77,5.8-21.23l64.65-64.65c53.25,58.67,61.16,160.75-5.99,229.91Z"/>
</svg>