<?xml version="1.0" encoding="UTF-8"?>
<svg id="Layer_1" data-name="Layer 1" xmlns="http://www.w3.org/2000/svg" viewBox="0 0 384 383.81">
  <defs>
    <style>
      .cls-1 {
        stroke-width: 0px;
      }
    </style>
  </defs>
  <path class="cls-1" d="m383.64,175.42c-.36-7.94-.34-15.95-2.04-23.74-8.9-40.73-28.81-75.12-59.71-103.21-16.91-15.38-35.97-27.28-57.17-35.75-14.37-5.74-29.1-10.48-44.64-11.68C206.93.02,193.73-.24,180.56.22c-7.86.28-15.83.13-23.58,1.6-44.4,8.42-81.55,29.69-111.42,63.52-14.77,16.73-25.93,35.7-34.1,56.43-4.91,12.47-8.88,25.23-10.26,38.61-.7,6.82-.69,13.71-1.21,20.55v22.46c.76,1.66.26,3.42.36,5.13.49,7.8.47,15.65,2.01,23.34,3.68,18.36,10.28,35.65,19.05,52.18,10.9,20.53,25.53,38.12,42.79,53.51,15.67,13.98,33.43,24.83,52.82,32.98,14.03,5.9,28.43,10.49,43.67,12.01,6.91.69,13.88.6,20.79,1.27h21.75c1.92-.82,3.93-.24,5.89-.36,7.87-.48,15.81-.43,23.55-2.07,18.93-4.01,36.85-10.71,53.78-20.14,19.94-11.11,37.24-25.41,52.21-42.54,13.9-15.91,24.79-33.72,32.76-53.27,5.44-13.33,10.02-26.96,11.38-41.41.6-6.36.57-12.77,1.18-19.14v-26.2c-.72-1.02-.31-2.17-.36-3.26Zm-124.69,18.94c-2.43.54-5,.73-7.28,1.65-7.03,2.85-12.89.96-19.13-2.87-11.77-7.23-24.04-13.68-36.09-20.45-1.16-.65-2.31-1.34-4.48-2.6,6.81-1.45,12.56-2.63,18.29-3.9,11.66-2.6,23.3-5.28,34.97-7.83,1.22-.27,2.83-.3,3.86.27,15.57,8.65,31.08,17.43,46.59,26.19.28.16.45.53.9,1.09-12.71,2.85-25.17,5.65-37.63,8.45Zm42.06,3.7c-.91,6.37-1.72,12.25-2.6,18.12-2.42,16.13-4.9,32.25-7.24,48.4-.29,1.98-.79,3.03-2.94,3.5-17.17,3.75-34.3,7.63-51.97,11.59.86-6.05,1.64-11.8,2.49-17.53,2.4-16.26,4.87-32.51,7.19-48.78.3-2.12.89-3.3,3.17-3.79,17.05-3.71,34.07-7.54,51.89-11.5Zm-181.52-47.48c5.15.95,10.34,1.76,15.44,2.93,1.23.28,2.95,1.59,3.16,2.67,4.34,22.49,8.5,45.01,12.81,68.14-5.84-1.05-11.29-2-16.73-3-11.66-2.15-23.29-4.42-34.97-6.42-2.39-.41-3.36-1.3-3.78-3.59-3.25-18.02-6.6-36.02-9.92-54.03-.78-4.25-1.55-8.5-2.45-13.45,12.66,2.34,24.55,4.54,36.45,6.74Zm-31.44-18.69c9.75-5.95,18.55-11.33,27.37-16.71,5.86-3.57,11.7-7.17,17.6-10.65,1.11-.65,2.58-1.36,3.73-1.16,16.94,3.02,33.86,6.2,50.77,9.35.31.06.6.24,1.38.58-7,4.29-13.66,8.38-20.32,12.46-7.66,4.69-15.36,9.3-22.95,14.1-2.34,1.48-4.47,2.03-7.3,1.47-16.37-3.21-32.79-6.18-50.28-9.44Zm82.23,38.85c-2.29,15.77-4.63,31.53-6.95,47.29-.24,0-.47-.01-.71-.02-1.44-7.68-2.89-15.36-4.32-23.04-2.43-13.1-4.8-26.21-7.33-39.28-.54-2.79-.09-4.42,2.58-6.01,14.14-8.42,28.13-17.1,42.17-25.68.84-.51,1.7-.98,2.97-1.72,1.84,9.82,3.62,19.29,5.46,29.07-7.03,1.61-13.81,3.13-20.58,4.73-7.94,1.87-12.12,6.59-13.29,14.66Zm4.44,76.61c3.38-22.01,6.65-44.04,10.03-66.59,11.77,6.64,23.06,13,34.34,19.36,4.13,2.33,8.32,4.55,12.35,7.03.93.57,2.06,2.06,1.93,2.96-3.21,22.31-6.57,44.59-9.91,66.88-.02.11-.12.22-.29.5-.63-.25-1.32-.44-1.93-.78-14.68-8.24-29.33-16.53-44.04-24.71-2.01-1.12-2.85-2.26-2.49-4.66ZM72.3,71.6C139.36,5.14,241.36,9.05,303.08,63.5l-83.79,83.79c-2.12-11.39-4.23-22.6-6.27-33.81-1.56-8.54-5.75-13.06-14.25-14.65-20.36-3.81-40.72-7.7-61.16-11.04-3.47-.57-7.88.57-10.98,2.4-17.74,10.44-35.25,21.3-52.78,32.09-6.55,4.03-9.1,9.91-7.68,17.6,4.7,25.48,9.45,50.96,14.26,76.42,1.43,7.54,6.01,11.92,13.73,13.38,11.96,2.26,23.94,4.47,36.03,6.72l-66.69,66.69C8.15,241.01,4.99,138.3,72.3,71.6Zm285.61,157.53c-15.93,67.57-59.17,110.79-126.55,128.09-57.22,14.69-112.98-4.69-147.72-34.49l75.41-75.41c-.05.52-.11,1.03-.15,1.55-.54,6.61,2.05,11.8,7.77,15.06,18.32,10.45,36.64,20.91,55.19,30.92,3.1,1.67,7.62,2.17,11.12,1.46,19.8-4.04,39.5-8.58,59.22-13.03,9.3-2.1,13.2-6.72,14.55-16.11,3.54-24.67,7.17-49.34,10.86-73.99,1.36-9.09-1.18-14.62-9.34-19.22-16.3-9.18-32.58-18.34-48.54-27.32l63.28-63.28c34.14,42.34,47.75,91.25,34.9,145.77Z"/>
</svg>